<?xml version="1.0" encoding="UTF-8" standalone="no"?>
<!-- Created with Inkscape (http://www.inkscape.org/) -->

<svg
   width="256mm"
   height="256mm"
   viewBox="0 0 256 256"
   version="1.1"
   id="svg1"
   xml:space="preserve"
   inkscape:version="1.3.2 (091e20e, 2023-11-25, custom)"
   sodipodi:docname="KKv.svg"
   xmlns:inkscape="http://www.inkscape.org/namespaces/inkscape"
   xmlns:sodipodi="http://sodipodi.sourceforge.net/DTD/sodipodi-0.dtd"
   xmlns="http://www.w3.org/2000/svg"
   xmlns:svg="http://www.w3.org/2000/svg"><sodipodi:namedview
     id="namedview1"
     pagecolor="#ffffff"
     bordercolor="#000000"
     borderopacity="0.25"
     inkscape:showpageshadow="2"
     inkscape:pageopacity="0.0"
     inkscape:pagecheckerboard="0"
     inkscape:deskcolor="#d1d1d1"
     inkscape:document-units="mm"
     showgrid="false"
     inkscape:zoom="1.0378437"
     inkscape:cx="578.60349"
     inkscape:cy="561.74161"
     inkscape:window-width="2558"
     inkscape:window-height="1360"
     inkscape:window-x="127"
     inkscape:window-y="1097"
     inkscape:window-maximized="0"
     inkscape:current-layer="layer1" /><defs
     id="defs1" /><g
     inkscape:label="Calque 1"
     inkscape:groupmode="layer"
     id="layer1"><path
       style="fill:#82be20;fill-opacity:1;stroke:none"
       d="m 122.09917,63.20404 c -4.35176,0.739587 -1.71379,9.062025 -5.55768,10.552085 -2.23705,0.86718 -4.6338,1.29054 -6.87794,2.18548 -0.88842,0.35429 -2.19348,1.18991 -3.175,0.90787 -3.29357,-0.94642 -5.43559,-7.675014 -9.525001,-5.278197 -3.445857,2.019627 -6.589052,5.126597 -9.525,7.809907 -0.999398,0.9134 -2.529165,1.91623 -2.50231,3.43958 0.04977,2.82354 5.149451,6.72585 3.624948,9.28409 -1.276424,2.141962 -2.815106,4.099382 -3.964664,6.326332 -0.613149,1.18781 -1.125722,2.958783 -2.2414,3.772353 -2.360386,1.72119 -6.76677,-0.25007 -9.440888,0.95259 -1.314746,0.59129 -1.42082,2.24078 -1.66814,3.47714 -0.546284,2.73089 -1.011073,5.4778 -1.590366,8.20208 -0.271737,1.27793 -0.955336,2.92003 -0.619399,4.22925 0.760984,2.96575 6.732987,3.33003 8.803524,5.1998 1.028975,0.92919 0.79329,2.29437 0.912364,3.53554 0.242467,2.52738 1.385598,5.16167 1.387221,7.67291 0.002,3.08357 -5.383941,5.0611 -6.676239,7.67292 -0.711375,1.43774 0.284939,2.99011 0.97402,4.23333 1.741197,3.14143 3.295825,6.57531 5.355979,9.5199 2.629959,3.75901 7.218761,-1.48528 10.443483,-0.73393 1.172531,0.2732 2.0096,1.77104 2.781799,2.5901 1.767156,1.87438 3.924042,3.31525 5.792048,5.07322 3.245551,3.05437 -1.660574,7.30105 -0.326644,10.79871 0.566495,1.48539 2.442885,2.03952 3.771335,2.61011 3.61172,1.55133 7.33166,3.80489 11.1125,4.85804 4.26372,1.18764 5.31733,-6.01441 8.25088,-7.68128 1.33846,-0.76054 3.28281,-0.16903 4.7137,-0.071 3.10233,0.21245 6.18417,-0.36794 9.26042,-0.23581 4.23433,0.18189 4.63382,9.0571 8.99583,8.22883 3.89852,-0.74027 8.00237,-3.19254 11.64167,-4.75454 1.32979,-0.57075 3.19505,-1.05877 3.92138,-2.43249 1.54385,-2.91995 -1.98789,-6.78733 -1.26431,-9.77713 0.27174,-1.12279 1.54038,-1.88605 2.37001,-2.58173 1.78314,-1.49524 3.37743,-3.18922 5.02708,-4.82743 2.56034,-2.54255 4.60035,-1.11607 7.67292,-0.19067 1.68404,0.50719 3.51245,1.24939 4.81844,-0.36747 2.31669,-2.86814 3.93159,-6.78427 5.68323,-10.02539 0.64891,-1.20071 1.60279,-2.83623 0.86806,-4.20966 -1.33803,-2.50117 -7.31187,-4.79076 -6.83914,-7.96117 0.34401,-2.30726 1.10837,-4.55271 1.44153,-6.87917 0.17137,-1.19676 -0.094,-2.61747 0.6049,-3.6764 1.74568,-2.64511 6.26173,-2.41248 8.38949,-4.66572 1.04955,-1.11145 0.48318,-2.77974 0.22048,-4.09329 -0.68134,-3.407 -0.76085,-8.63076 -2.52394,-11.62717 -1.66786,-2.83456 -7.31691,-0.66145 -9.98946,-1.7984 -1.1602,-0.49357 -1.46559,-1.95411 -1.97783,-2.978603 -1.29526,-2.59052 -3.20759,-4.8518 -4.50262,-7.408332 -1.32467,-2.61509 3.55678,-6.27324 3.735,-8.99583 0.0998,-1.5243 -1.54773,-2.70507 -2.57397,-3.59168 -3.02932,-2.6171 -6.22107,-6.12259 -9.78959,-7.979144 -3.9198,-2.039314 -6.07622,4.766264 -9.26041,5.497244 -0.94403,0.21672 -2.07428,-0.55951 -2.91042,-0.91705 -1.99957,-0.85502 -4.03472,-1.47971 -6.08542,-2.18364 -4.50623,-1.5468 -2.22073,-7.474199 -5.13792,-10.290161 -1.0071,-0.972147 -2.84476,-0.643905 -4.12249,-0.643905 -3.79365,0 -8.18462,-0.40545 -11.90605,0.227021 m -88.371035,42.90003 c -0.62394,-2.72952 -0.264583,-5.40245 -0.264583,-8.202093 V 83.085355 c 0,-2.14372 0.882565,-6.93677 -0.678403,-8.61652 -1.308552,-1.40811 -5.481539,-0.6439 -7.259097,-0.6439 -1.768099,0 -5.918089,-0.76048 -7.324221,0.42423 -1.079226,0.90928 -0.613278,3.34528 -0.613278,4.60285 v 12.7 51.593755 14.55208 c 0,1.59668 -0.56425,4.38202 1.588725,4.72331 3.190898,0.50581 6.820509,0.0392 10.052941,0.0392 1.129788,0 2.700779,0.25661 3.568201,-0.6439 1.239261,-1.28652 0.665132,-4.33247 0.665132,-5.97068 v -16.40417 c 0,-4.80164 -0.291451,-8.12321 2.608678,-12.17083 0.503103,-0.70215 1.627158,-2.90946 2.678906,-2.74342 0.908928,0.14348 1.46271,1.78618 1.856165,2.47884 1.520692,2.67713 2.823427,5.48608 4.276613,8.20208 3.28134,6.13283 6.553108,12.30946 9.680771,18.52083 1.322025,2.62547 2.745727,6.89002 5.35822,8.46421 2.121112,1.27812 6.059437,0.53163 8.465645,0.53163 1.695407,0 4.222336,0.46602 5.805322,-0.19641 1.584932,-0.66323 0.899703,-2.3662 0.344407,-3.50776 -1.506771,-3.09758 -3.005242,-6.23056 -4.643894,-9.26042 -5.421221,-10.02384 -10.602731,-20.24895 -15.727802,-30.42708 -1.181299,-2.346 -5.456829,-7.99878 -4.373788,-10.58333 1.242612,-2.96534 3.926302,-5.84168 5.783473,-8.46667 3.797067,-5.366893 7.538783,-10.773395 11.337065,-16.139585 1.746551,-2.46752 4.742096,-5.31891 5.695486,-8.20208 0.713684,-2.15829 -1.985659,-2.3741 -3.426519,-2.38104 -3.631601,-0.0175 -10.687186,-1.35137 -13.469049,1.35129 -1.821687,1.76982 -3.091951,4.25977 -4.559977,6.32141 -3.751983,5.26917 -7.222456,10.75744 -10.810556,16.139592 -1.698386,2.54758 -3.830608,7.370803 -6.614583,8.731253 m 193.674995,0 c -2.83931,-1.45058 -4.94963,-6.349943 -6.62866,-8.995843 -2.93276,-4.621582 -6.03492,-9.136752 -8.96767,-13.758332 -1.78053,-2.80585 -3.43862,-6.24303 -5.74734,-8.64408 -1.2743,-1.32524 -2.89233,-1.1455 -4.5855,-1.1455 h -9.78958 c -1.36758,0 -4.40333,-0.43882 -3.79114,1.85229 0.77986,2.91867 3.88555,5.96682 5.55504,8.46646 3.78573,5.66822 7.68427,11.262392 11.46527,16.933335 1.68108,2.52137 3.9914,5.14545 5.17754,7.9375 1.09176,2.56987 -3.36365,8.25839 -4.5904,10.58333 -5.34688,10.13343 -10.6441,20.29372 -15.99095,30.42708 -1.62989,3.08899 -3.30461,6.15904 -4.90991,9.26042 -0.58593,1.13199 -1.42924,2.81724 0.2209,3.50776 1.64714,0.68927 4.30433,0.19641 6.0699,0.19641 2.60395,0 7.24798,0.88676 9.51439,-0.53163 2.36397,-1.47944 3.607,-5.54325 4.8415,-7.93504 3.21951,-6.23768 6.38152,-12.5046 9.52193,-18.78542 1.4567,-2.91337 2.82362,-5.8987 4.4326,-8.73125 0.44892,-0.79031 1.06303,-2.58493 2.10339,-2.74342 1.08994,-0.16604 2.1458,2.26214 2.60827,3.00801 2.57232,4.14861 2.69667,6.84057 2.69667,11.64166 0,5.65089 0.1966,11.30211 0.26357,16.93334 0.02,1.68665 -0.67768,5.20459 0.64492,6.47861 0.90498,0.87174 2.44286,0.66507 3.58943,0.66514 3.00926,1.9e-4 6.27957,0.36349 9.26041,-0.05 2.53326,-0.35141 2.11667,-2.76115 2.11667,-4.71248 v -14.55209 -52.122915 -12.7 c 0,-1.25756 0.46593,-3.69359 -0.61327,-4.60285 -0.8261,-0.69602 -2.35528,-0.42423 -3.35548,-0.42423 -2.35475,0 -9.74517,-1.21196 -10.80872,1.33454 -1.07754,2.58 -0.30378,6.74476 -0.30378,9.51337 V 106.10414 M 128.18438,84.483815 c 22.86348,-2.69769 41.40045,19.704125 39.92841,41.199455 -1.28204,18.72105 -16.5113,33.9955 -34.90132,36.17237 -29.4204,3.48257 -51.092476,-29.4452 -39.076471,-55.48695 6.535791,-14.164745 19.434011,-20.160385 34.049381,-21.884875 m -24.34166,17.651545 c 0,7.90886 4.34826,15.59346 11.64167,19.01836 2.89765,1.3607 7.10294,1.06738 9.476,3.29381 2.59108,2.43095 2.97285,6.64223 3.20031,9.96699 0.0789,1.15313 0.21823,2.92741 -0.65471,3.83278 -1.13722,1.17946 -4.14333,1.29152 -5.6716,2.05378 -2.63356,1.31358 -4.35878,3.91433 -6.87917,5.17858 -3.35716,1.68397 -6.64247,1.33378 -9.78958,4.01611 v 0.26458 c 9.61045,9.41101 24.90311,12.26401 37.30624,7.30259 3.0333,-1.21336 5.88162,-2.8265 8.46667,-4.83274 0.67896,-0.52694 2.32654,-1.48803 2.32654,-2.46965 0,-0.93099 -1.38206,-1.56273 -2.06196,-1.94068 -2.31772,-1.28836 -4.80114,-1.28566 -7.14375,-2.29143 -2.19884,-0.94403 -3.79581,-3.31062 -5.82083,-4.61897 -1.82842,-1.18132 -5.6315,-1.28732 -6.98429,-2.68197 -1.622,-1.67219 -0.43136,-6.84027 0.0165,-8.84006 1.62225,-7.24326 8.02378,-5.89657 13.31775,-8.96297 6.49142,-3.75998 10.05417,-10.9805 10.05417,-18.28911 -9.03206,-1.14149 -18.72467,1.63226 -22.32687,10.84791 -1.59026,4.06844 -0.74955,8.25681 -2.80854,12.17083 -2.9792,-3.32116 -1.63477,-8.18005 -3.15235,-12.17083 -3.39559,-8.92938 -13.60359,-12.50183 -22.51224,-10.84791 m 11.37709,7.9375 c 3.051,1.0389 6.18439,3.11285 7.14375,6.34999 l -7.40834,-6.08541 0.26459,-0.26458 m 28.57499,0 v 0.26458 l -7.67292,6.08541 c 1.20017,-3.16542 4.43425,-5.58073 7.67292,-6.34999 z"
       id="path1" /></g></svg>
